grf
version=1
nRows=17
nColumns=37
inDegrees=no
endheader
time	ground_force_1_vx	ground_force_1_vy	ground_force_1_vz	ground_force_1_px	ground_force_1_py	ground_force_1_pz	ground_moment_1_mx	ground_moment_1_my	ground_moment_1_mz	ground_force_2_vx	ground_force_2_vy	ground_force_2_vz	ground_force_2_px	ground_force_2_py	ground_force_2_pz	ground_moment_2_mx	ground_moment_2_my	ground_moment_2_mz	ground_force_3_vx	ground_force_3_vy	ground_force_3_vz	ground_force_3_px	ground_force_3_py	ground_force_3_pz	ground_moment_3_mx	ground_moment_3_my	ground_moment_3_mz	ground_force_4_vx	ground_force_4_vy	ground_force_4_vz	ground_force_4_px	ground_force_4_py	ground_force_4_pz	ground_moment_4_mx	ground_moment_4_my	ground_moment_4_mz
      0.00000000	      0.00000000	     -0.00000000	      0.00000000	      0.00000000	      0.00000000	      0.00000000	      0.00000000	      0.00000000	      0.00000000	      7.92860556	     35.11190796	   -417.17196655	   -329.43576829	  -1044.16441806	      0.00000000	      0.00000000	      0.00000000	    773.38410116	     -4.04171346	    -29.82460750	   -463.78451538	   -299.96186270	   -730.14791637	      0.00000000	      0.00000000	     -0.00000000	   -999.80957482	      0.00000000	     -0.00000000	      0.00000000	      0.00000000	      0.00000000	      0.00000000	      0.00000000	      0.00000000	      0.00000000
      0.01000000	      0.00000000	     -0.00000000	      0.00000000	      0.00000000	      0.00000000	      0.00000000	      0.00000000	      0.00000000	      0.00000000	      6.42315674	     35.47389984	   -425.47302246	   -326.23344250	  -1045.74902560	      0.00000000	      0.00000000	      0.00000000	    591.90456212	     -4.64078789	    -30.51541288	   -453.98385620	   -298.40513851	   -730.23922935	      0.00000000	      0.00000000	     -0.00000000	  -1225.94976025	      0.00000000	     -0.00000000	      0.00000000	      0.00000000	      0.00000000	      0.00000000	      0.00000000	      0.00000000	      0.00000000
      0.02000000	      0.00000000	     -0.00000000	      0.00000000	      0.00000000	      0.00000000	      0.00000000	      0.00000000	      0.00000000	      0.00000000	      5.96163750	     35.00496292	   -434.36520386	   -324.13302627	  -1045.53706795	      0.00000000	      0.00000000	      0.00000000	    870.90576013	     -4.81291085	    -30.67005115	   -447.50430298	   -297.44065444	   -729.92628901	      0.00000000	      0.00000000	     -0.00000000	  -1251.45491534	      0.00000000	     -0.00000000	      0.00000000	      0.00000000	      0.00000000	      0.00000000	      0.00000000	      0.00000000	      0.00000000
      0.03000000	      0.00000000	     -0.00000000	      0.00000000	      0.00000000	      0.00000000	      0.00000000	      0.00000000	      0.00000000	      0.00000000	      5.07313919	     33.86955261	   -442.78149414	   -321.91508425	  -1045.13906342	      0.00000000	      0.00000000	      0.00000000	    724.56091728	     -5.63887055	    -30.80143498	   -442.37512207	   -296.48261860	   -729.06653816	      0.00000000	      0.00000000	     -0.00000000	  -1351.77121213	      0.00000000	     -0.00000000	      0.00000000	      0.00000000	      0.00000000	      0.00000000	      0.00000000	      0.00000000	      0.00000000
      0.04000000	      0.00000000	     -0.00000000	      0.00000000	      0.00000000	      0.00000000	      0.00000000	      0.00000000	      0.00000000	      0.00000000	      4.72815704	     32.66233826	   -450.75372314	   -320.17777678	  -1044.69734422	      0.00000000	      0.00000000	      0.00000000	   1033.40760749	     -5.99385388	    -30.82426782	   -437.33554077	   -295.69771858	   -729.77604510	      0.00000000	     -0.00000000	     -0.00000000	  -1241.14097468	      0.00000000	     -0.00000000	      0.00000000	      0.00000000	      0.00000000	      0.00000000	      0.00000000	      0.00000000	      0.00000000
      0.05000000	      0.00000000	     -0.00000000	      0.00000000	      0.00000000	      0.00000000	      0.00000000	      0.00000000	      0.00000000	      0.00000000	      4.65133190	     32.08694458	   -458.02532959	   -318.69747252	  -1043.74096260	      0.00000000	      0.00000000	      0.00000000	    930.64893266	     -5.72784261	    -30.48291728	   -434.25024414	   -294.81285281	   -728.74012872	      0.00000000	      0.00000000	     -0.00000000	  -1448.00586827	      0.00000000	     -0.00000000	      0.00000000	      0.00000000	      0.00000000	      0.00000000	      0.00000000	      0.00000000	      0.00000000
      0.06000000	      0.00000000	     -0.00000000	      0.00000000	      0.00000000	      0.00000000	      0.00000000	      0.00000000	      0.00000000	      0.00000000	      4.70249510	     32.16305542	   -466.50070190	   -317.65132074	  -1044.39391658	      0.00000000	      0.00000000	      0.00000000	   1065.37062049	     -6.05989293	    -30.38265938	   -429.75750732	   -294.28048584	   -729.47986593	      0.00000000	      0.00000000	     -0.00000000	  -1521.72800407	      0.00000000	     -0.00000000	      0.00000000	      0.00000000	      0.00000000	      0.00000000	      0.00000000	      0.00000000	      0.00000000
      0.07000000	      0.00000000	     -0.00000000	      0.00000000	      0.00000000	      0.00000000	      0.00000000	      0.00000000	      0.00000000	      0.00000000	      4.89343119	     32.67270660	   -472.95751953	   -317.23324080	  -1043.89052742	      0.00000000	      0.00000000	      0.00000000	   1142.94167020	     -6.41204816	    -30.68559591	   -429.40426636	   -293.60441427	   -728.36521558	      0.00000000	      0.00000000	     -0.00000000	  -1590.89553455	      0.00000000	     -0.00000000	      0.00000000	      0.00000000	      0.00000000	      0.00000000	      0.00000000	      0.00000000	      0.00000000
      0.08000000	      0.00000000	     -0.00000000	      0.00000000	      0.00000000	      0.00000000	      0.00000000	      0.00000000	      0.00000000	      0.00000000	      5.22537279	     32.83930206	   -477.54605103	   -315.64647654	  -1044.92307232	      0.00000000	      0.00000000	      0.00000000	   1173.57842477	     -6.67859487	    -30.45832194	   -426.51318359	   -292.93492868	   -728.44962907	      0.00000000	      0.00000000	     -0.00000000	  -1628.64189445	      0.00000000	     -0.00000000	      0.00000000	      0.00000000	      0.00000000	      0.00000000	      0.00000000	      0.00000000	      0.00000000
      0.09000000	      0.00000000	     -0.00000000	      0.00000000	      0.00000000	      0.00000000	      0.00000000	      0.00000000	      0.00000000	      0.00000000	      5.45520020	     34.04566574	   -484.05957031	   -314.76850449	  -1046.38873097	      0.00000000	      0.00000000	      0.00000000	   1079.62644355	     -6.97027762	    -30.83716713	   -425.46676636	   -292.60354003	   -728.16161701	      0.00000000	      0.00000000	     -0.00000000	  -1816.82118564	      0.00000000	     -0.00000000	      0.00000000	      0.00000000	      0.00000000	      0.00000000	      0.00000000	      0.00000000	      0.00000000
      0.10000000	      0.00000000	     -0.00000000	      0.00000000	      0.00000000	      0.00000000	      0.00000000	      0.00000000	      0.00000000	      0.00000000	      5.78508043	     34.92853165	   -484.29364014	   -314.02786027	  -1045.13539850	      0.00000000	      0.00000000	      0.00000000	   1004.17437107	     -6.91944395	    -31.20200287	   -422.51815796	   -292.44939306	   -728.09050837	      0.00000000	      0.00000000	     -0.00000000	  -1941.62835613	      0.00000000	     -0.00000000	      0.00000000	      0.00000000	      0.00000000	      0.00000000	      0.00000000	      0.00000000	      0.00000000
      0.11000000	      0.00000000	     -0.00000000	      0.00000000	      0.00000000	      0.00000000	      0.00000000	      0.00000000	      0.00000000	      0.00000000	      6.38545513	     36.16307449	   -487.53756714	   -313.41114601	  -1046.36703295	      0.00000000	      0.00000000	      0.00000000	   1201.81241891	     -6.95709792	    -31.78246247	   -420.48403931	   -291.42956472	   -727.76154687	      0.00000000	      0.00000000	     -0.00000000	  -2033.10145462	      0.00000000	     -0.00000000	      0.00000000	      0.00000000	      0.00000000	      0.00000000	      0.00000000	      0.00000000	      0.00000000
      0.12000000	      0.00000000	     -0.00000000	      0.00000000	      0.00000000	      0.00000000	      0.00000000	      0.00000000	      0.00000000	      0.00000000	      6.39962816	     37.19545746	   -488.59664917	   -312.32639292	  -1046.72217646	      0.00000000	      0.00000000	      0.00000000	   1244.66505887	     -7.65642066	    -32.23741846	   -416.98104858	   -290.21775132	   -728.38341845	      0.00000000	      0.00000000	      0.00000000	  -1914.92177535	      0.00000000	     -0.00000000	      0.00000000	      0.00000000	      0.00000000	      0.00000000	      0.00000000	      0.00000000	      0.00000000
      0.13000000	      0.00000000	     -0.00000000	      0.00000000	      0.00000000	      0.00000000	      0.00000000	      0.00000000	      0.00000000	      0.00000000	      5.90222692	     37.18169785	   -489.91729736	   -311.35785808	  -1046.65950686	      0.00000000	      0.00000000	      0.00000000	   1114.46585596	     -7.75523378	    -32.94399194	   -414.88449097	   -289.80593131	   -728.30619066	      0.00000000	      0.00000000	     -0.00000000	  -2053.66181828	      0.00000000	     -0.00000000	      0.00000000	      0.00000000	      0.00000000	      0.00000000	      0.00000000	      0.00000000	      0.00000000
      0.14000000	      0.00000000	     -0.00000000	      0.00000000	      0.00000000	      0.00000000	      0.00000000	      0.00000000	      0.00000000	      0.00000000	      5.44184113	     37.48661804	   -491.21557617	   -310.52244039	  -1047.28962748	      0.00000000	      0.00000000	      0.00000000	   1199.03432619	     -8.10102084	    -32.99520422	   -413.19305420	   -288.78161302	   -728.20462611	      0.00000000	      0.00000000	     -0.00000000	  -2166.15829204	      0.00000000	     -0.00000000	      0.00000000	      0.00000000	      0.00000000	      0.00000000	      0.00000000	      0.00000000	      0.00000000
      0.15000000	      0.00000000	     -0.00000000	      0.00000000	      0.00000000	      0.00000000	      0.00000000	      0.00000000	      0.00000000	      0.00000000	      5.12934542	     37.34564209	   -491.97967529	   -309.92393638	  -1046.29267157	      0.00000000	      0.00000000	      0.00000000	   1224.22470498	     -8.26447779	    -33.40829777	   -410.07373047	   -288.45935363	   -728.09160753	      0.00000000	      0.00000000	     -0.00000000	  -2134.11395444	      0.00000000	     -0.00000000	      0.00000000	      0.00000000	      0.00000000	      0.00000000	      0.00000000	      0.00000000	      0.00000000
      0.16000000	      0.00000000	     -0.00000000	      0.00000000	      0.00000000	      0.00000000	      0.00000000	      0.00000000	      0.00000000	      0.00000000	      4.65401030	     37.67206192	   -493.09884644	   -309.06105665	  -1046.83171339	      0.00000000	      0.00000000	      0.00000000	   1201.55753112	     -8.15366945	    -33.77575231	   -408.38894653	   -287.50742273	   -726.24096885	      0.00000000	      0.00000000	     -0.00000000	  -2234.62108046	      0.00000000	     -0.00000000	      0.00000000	      0.00000000	      0.00000000	      0.00000000	      0.00000000	      0.00000000	      0.00000000
